<svg width="90" height="60" viewBox="0 0 90 60" fill="none" xmlns="http://www.w3.org/2000/svg">
<path d="M0 8.25618C0 4.88214 2.31353 3.55297 5.1592 3.37404L18.4086 3.46208C19.2083 3.46208 19.9197 3.99602 20.1872 4.79409C23.2121 14.5584 26.9456 20.5936 31.3934 27.4269C31.6609 27.9608 32.1048 28.2249 32.5488 28.2249C32.9045 28.2249 33.2602 28.046 33.5277 27.603L33.7952 26.626L33.8834 11.2724C33.8834 9.05425 32.8163 8.69923 30.3263 8.34422C29.3474 8.1653 28.7242 7.27918 28.7242 6.39023C28.7242 6.2113 28.7242 6.03522 28.8124 5.85629C30.0588 2.03919 33.9716 0.0880436 39.4837 0.0880436L44.4636 0C48.5557 0 52.2892 1.77506 52.2892 7.01221V27.1599C52.6449 27.4269 53.0006 27.603 53.4445 27.603C54.1559 27.603 55.0466 27.1599 55.7581 26.004C60.3823 19.5257 65.6297 11.8035 66.3411 7.7194C66.3411 7.54047 66.4293 7.45243 66.5204 7.27634C67.4993 5.32235 69.9892 3.99318 71.0564 3.63817C71.2356 3.55013 71.5003 3.45924 71.856 3.45924H85.6404L86.5311 3.54729C87.8657 3.54729 88.8447 4.43624 89.2886 5.23431C90.0882 6.47827 89.9118 7.80744 90 8.34138V8.96336C88.6654 17.0406 79.417 26.092 75.5042 31.9512C74.9692 32.6612 74.7045 33.2832 74.7045 33.9051C74.7045 34.4391 74.972 34.9702 75.4159 35.5041L88.4007 51.8347C89.1121 52.8117 89.4679 53.9648 89.4679 54.9418C89.4679 57.8699 86.7104 59.5569 84.044 59.8239L82.533 59.912H69.016C68.7485 59.912 68.5721 60 68.3046 60C66.7936 60 65.5472 59.2019 64.6593 58.313C61.8136 54.8509 59.0562 51.3008 56.2987 47.8387C55.7637 47.1287 55.5873 47.0406 55.0523 46.6856C54.4291 49.2587 53.897 51.9228 53.2738 54.5839L53.0063 56.092C52.5624 57.691 51.4042 59.3752 49.2699 59.8211L48.0235 59.9091H39.3072C23.9235 59.9091 10.1391 38.0744 0.44677 10.8293C0.179277 10.1193 0.00284568 9.14229 0.00284568 8.25618H0ZM53.4445 31.244C51.131 31.244 48.5528 29.912 48.5528 27.4269V7.01221C48.5528 4.61517 47.4857 3.72906 44.5518 3.72906L39.4837 3.90798C36.638 3.90798 35.0359 4.35104 33.7041 5.23999C35.7501 6.21699 37.6169 7.54899 37.6169 11.2752V26.8958C37.3494 30.0028 34.7712 32.0449 32.2813 32.0449C30.5909 32.0449 29.0799 31.0679 28.1892 29.4717C24.1882 23.4365 20.8075 17.7563 17.8737 9.59103L17.074 7.28202L5.24741 7.19398C3.6453 7.19398 3.82458 7.28202 3.82458 8.08293C3.82458 8.61687 3.9128 9.3269 4.00386 9.76995L5.87062 14.7401C15.563 39.77 27.7481 56.1886 39.3072 56.1886H48.2C49.4464 56.1886 49.3553 54.6805 49.6228 53.7915L51.3131 45.9813C51.6688 45.1832 51.9363 44.4732 52.5595 43.8512C53.2709 43.1412 54.0706 42.8742 54.8731 42.8742C56.5634 42.8742 58.1626 44.2062 59.2298 45.4473L66.7879 55.0327C67.4111 56.0097 67.9432 56.1857 68.2989 56.1857H82.9712C84.394 56.1857 85.6404 55.7427 85.6404 54.8537C85.6404 54.5868 85.5522 54.2318 85.3729 53.9648L72.4792 37.9012C71.4121 36.5692 70.9682 35.2371 70.9682 33.908C70.9682 32.4879 71.5031 31.0679 72.391 29.8239C76.1274 24.2318 84.1294 16.2454 85.9961 9.67623L86.2636 8.52315C86.1754 8.08009 86.1754 7.72508 86.0844 7.27918H72.1235C71.2328 7.6342 70.5214 8.16813 69.9892 8.87816L69.4543 10.5652C67.4082 16.2454 61.8051 24.0557 57.8041 29.4689C56.4695 30.7129 54.9556 31.244 53.4445 31.244Z" fill="white"/>
</svg>
